<?xml version="1.0" encoding="utf-8"?>
<!-- Generator: Adobe Illustrator 19.0.0, SVG Export Plug-In . SVG Version: 6.00 Build 0)  -->
<svg version="1.1" id="Capa_1" xmlns="http://www.w3.org/2000/svg" xmlns:xlink="http://www.w3.org/1999/xlink" x="0px" y="0px"
	 viewBox="-223 25 512 512" style="enable-background:new -223 25 512 512;" xml:space="preserve">
<style type="text/css">
	.st0{fill:#FFFFFF;}
</style>
<g>
	<path class="st0" d="M274.6,284.5c0.9-2.2,0.9-4.7,0-7c-0.5-1.1-1.1-2.1-2-3L162.9,164.8c-3.6-3.6-9.4-3.6-12.9,0
		c-3.6,3.6-3.6,9.4,0,12.9l94.1,94.1H-35.6c-5,0-9.1,4.1-9.1,9.1c0,5.1,4.1,9.1,9.1,9.1h279.6L150,384.3c-3.6,3.6-3.6,9.4,0,12.9
		c1.8,1.8,4.1,2.7,6.5,2.7s4.7-0.9,6.5-2.7l109.7-109.7C273.4,286.6,274.1,285.6,274.6,284.5z"/>
	<path class="st0" d="M-72.1,281c0-20.2,16.4-36.6,36.6-36.6h155.4V34.1c0-5.1-4.1-9.1-9.1-9.1h-310.9c-5,0-9.1,4.1-9.1,9.1v493.7
		c0,5.1,4.1,9.1,9.1,9.1h310.9c5,0,9.1-4.1,9.1-9.1V317.6H-35.6C-55.8,317.6-72.1,301.2-72.1,281z"/>
</g>
</svg>
