<?xml version="1.0" encoding="utf-8"?>
<!-- Generator: Adobe Illustrator 19.0.0, SVG Export Plug-In . SVG Version: 6.00 Build 0)  -->
<svg version="1.1" xmlns="http://www.w3.org/2000/svg" xmlns:xlink="http://www.w3.org/1999/xlink" x="0px" y="0px"
	 viewBox="0 0 249.5 165.3" enable-background="new 0 0 249.5 165.3" xml:space="preserve">
<g id="Layer_12">
</g>
<g id="Layer_11">
</g>
<g id="Layer_6">
	<g>
		<path fill="#4C66B0" d="M244,164.8H5.5c-2.8,0-5-2.3-5-5V5.5c0-2.8,2.3-5,5-5H244c2.8,0,5,2.3,5,5v154.3
			C249,162.6,246.7,164.8,244,164.8z"/>
		<path fill="#40BDAA" d="M244,165.3H5.5c-3,0-5.5-2.5-5.5-5.5V5.5C0,2.5,2.5,0,5.5,0H244c3,0,5.5,2.5,5.5,5.5v154.3
			C249.5,162.9,247,165.3,244,165.3z M5.5,1C3,1,1,3,1,5.5v154.3c0,2.5,2,4.5,4.5,4.5H244c2.5,0,4.5-2,4.5-4.5V5.5
			c0-2.5-2-4.5-4.5-4.5H5.5z"/>
	</g>
</g>
<g id="Layer_5">
	<path fill="#2B2928" d="M236.4,157.1H12.7c-2.8,0-5-2.3-5-5V14.6c0-2.8,2.2-5,5-5h223.8c2.8,0,5,2.3,5,5v137.5
		C241.4,154.8,239.2,157.1,236.4,157.1z"/>
</g>
<g id="Layer_3">
	<path fill="#171717" d="M177.9,148.6h-155c-2.8,0-5-2.3-5-5V22.8c0-2.8,2.3-5,5-5h155c2.8,0,5,2.3,5,5v120.8
		C182.9,146.3,180.7,148.6,177.9,148.6z"/>
</g>
<g id="Layer_1">
	<g>
		<circle fill="#181818" cx="195.6" cy="61.7" r="0.9"/>
		<circle fill="#181818" cx="195.6" cy="65.7" r="0.9"/>
		<circle fill="#181818" cx="195.6" cy="69.7" r="0.9"/>
		<circle fill="#181818" cx="195.6" cy="73.7" r="0.9"/>
		<circle fill="#181818" cx="195.6" cy="77.7" r="0.9"/>
		<circle fill="#181818" cx="195.6" cy="81.7" r="0.9"/>
		<circle fill="#181818" cx="195.6" cy="85.7" r="0.9"/>
		<circle fill="#181818" cx="195.6" cy="89.7" r="0.9"/>
		<circle fill="#181818" cx="195.6" cy="93.7" r="0.9"/>
		<circle fill="#181818" cx="195.6" cy="97.7" r="0.9"/>
		<circle fill="#181818" cx="195.6" cy="101.7" r="0.9"/>
		<circle fill="#181818" cx="195.6" cy="105.7" r="0.9"/>
		<circle fill="#181818" cx="195.6" cy="109.7" r="0.9"/>
		<circle fill="#181818" cx="195.6" cy="113.7" r="0.9"/>
		<circle fill="#181818" cx="195.6" cy="117.7" r="0.9"/>
		<circle fill="#181818" cx="195.6" cy="121.7" r="0.9"/>
		<circle fill="#181818" cx="200.1" cy="59.7" r="0.9"/>
		<circle fill="#181818" cx="200.1" cy="63.7" r="0.9"/>
		<circle fill="#181818" cx="200.1" cy="67.7" r="0.9"/>
		<circle fill="#181818" cx="200.1" cy="71.7" r="0.9"/>
		<circle fill="#181818" cx="200.1" cy="75.7" r="0.9"/>
		<circle fill="#181818" cx="200.1" cy="79.7" r="0.9"/>
		<circle fill="#181818" cx="200.1" cy="83.7" r="0.9"/>
		<circle fill="#181818" cx="200.1" cy="87.7" r="0.9"/>
		<circle fill="#181818" cx="200.1" cy="91.7" r="0.9"/>
		<circle fill="#181818" cx="200.1" cy="95.7" r="0.9"/>
		<circle fill="#181818" cx="200.1" cy="99.7" r="0.9"/>
		<circle fill="#181818" cx="200.1" cy="103.7" r="0.9"/>
		<circle fill="#181818" cx="200.1" cy="107.7" r="0.9"/>
		<circle fill="#181818" cx="200.1" cy="111.7" r="0.9"/>
		<circle fill="#181818" cx="200.1" cy="115.7" r="0.9"/>
		<circle fill="#181818" cx="200.1" cy="119.7" r="0.9"/>
		<circle fill="#181818" cx="204.6" cy="61.7" r="0.9"/>
		<circle fill="#181818" cx="204.6" cy="65.7" r="0.9"/>
		<circle fill="#181818" cx="204.6" cy="69.7" r="0.9"/>
		<circle fill="#181818" cx="204.6" cy="73.7" r="0.9"/>
		<circle fill="#181818" cx="204.6" cy="77.7" r="0.9"/>
		<circle fill="#181818" cx="204.6" cy="81.7" r="0.9"/>
		<circle fill="#181818" cx="204.6" cy="85.7" r="0.9"/>
		<circle fill="#181818" cx="204.6" cy="89.7" r="0.9"/>
		<circle fill="#181818" cx="204.6" cy="93.7" r="0.9"/>
		<circle fill="#181818" cx="204.6" cy="97.7" r="0.9"/>
		<circle fill="#181818" cx="204.6" cy="101.7" r="0.9"/>
		<circle fill="#181818" cx="204.6" cy="105.7" r="0.9"/>
		<circle fill="#181818" cx="204.6" cy="109.7" r="0.9"/>
		<circle fill="#181818" cx="204.6" cy="113.7" r="0.9"/>
		<circle fill="#181818" cx="204.6" cy="117.7" r="0.9"/>
		<circle fill="#181818" cx="204.6" cy="121.7" r="0.9"/>
		<circle fill="#181818" cx="209.1" cy="59.7" r="0.9"/>
		<circle fill="#181818" cx="209.1" cy="63.7" r="0.9"/>
		<circle fill="#181818" cx="209.1" cy="67.7" r="0.9"/>
		<circle fill="#181818" cx="209.1" cy="71.7" r="0.9"/>
		<circle fill="#181818" cx="209.1" cy="75.7" r="0.9"/>
		<circle fill="#181818" cx="209.1" cy="79.7" r="0.9"/>
		<circle fill="#181818" cx="209.1" cy="83.7" r="0.9"/>
		<circle fill="#181818" cx="209.1" cy="87.7" r="0.9"/>
		<circle fill="#181818" cx="209.1" cy="91.7" r="0.9"/>
		<circle fill="#181818" cx="209.1" cy="95.7" r="0.9"/>
		<circle fill="#181818" cx="209.1" cy="99.7" r="0.9"/>
		<circle fill="#181818" cx="209.1" cy="103.7" r="0.9"/>
		<circle fill="#181818" cx="209.1" cy="107.7" r="0.9"/>
		<circle fill="#181818" cx="209.1" cy="111.7" r="0.9"/>
		<circle fill="#181818" cx="209.1" cy="115.7" r="0.9"/>
		<circle fill="#181818" cx="209.1" cy="119.7" r="0.9"/>
		<circle fill="#181818" cx="212.6" cy="61.7" r="0.9"/>
		<circle fill="#181818" cx="212.6" cy="65.7" r="0.9"/>
		<circle fill="#181818" cx="212.6" cy="69.7" r="0.9"/>
		<circle fill="#181818" cx="212.6" cy="73.7" r="0.9"/>
		<circle fill="#181818" cx="212.6" cy="77.7" r="0.9"/>
		<circle fill="#181818" cx="212.6" cy="81.7" r="0.9"/>
		<circle fill="#181818" cx="212.6" cy="85.7" r="0.9"/>
		<circle fill="#181818" cx="212.6" cy="89.7" r="0.9"/>
		<circle fill="#181818" cx="212.6" cy="93.7" r="0.9"/>
		<circle fill="#181818" cx="212.6" cy="97.7" r="0.9"/>
		<circle fill="#181818" cx="212.6" cy="101.7" r="0.9"/>
		<circle fill="#181818" cx="212.6" cy="105.7" r="0.9"/>
		<circle fill="#181818" cx="212.6" cy="109.7" r="0.9"/>
		<circle fill="#181818" cx="212.6" cy="113.7" r="0.9"/>
		<circle fill="#181818" cx="212.6" cy="117.7" r="0.9"/>
		<circle fill="#181818" cx="212.6" cy="121.7" r="0.9"/>
		<circle fill="#181818" cx="217.1" cy="59.7" r="0.9"/>
		<circle fill="#181818" cx="217.1" cy="63.7" r="0.9"/>
		<circle fill="#181818" cx="217.1" cy="67.7" r="0.9"/>
		<circle fill="#181818" cx="217.1" cy="71.7" r="0.9"/>
		<circle fill="#181818" cx="217.1" cy="75.7" r="0.9"/>
		<circle fill="#181818" cx="217.1" cy="79.7" r="0.9"/>
		<circle fill="#181818" cx="217.1" cy="83.7" r="0.9"/>
		<circle fill="#181818" cx="217.1" cy="87.7" r="0.9"/>
		<circle fill="#181818" cx="217.1" cy="91.7" r="0.9"/>
		<circle fill="#181818" cx="217.1" cy="95.7" r="0.9"/>
		<circle fill="#181818" cx="217.1" cy="99.7" r="0.9"/>
		<circle fill="#181818" cx="217.1" cy="103.7" r="0.9"/>
		<circle fill="#181818" cx="217.1" cy="107.7" r="0.9"/>
		<circle fill="#181818" cx="217.1" cy="111.7" r="0.9"/>
		<circle fill="#181818" cx="217.1" cy="115.7" r="0.9"/>
		<circle fill="#181818" cx="217.1" cy="119.7" r="0.9"/>
		<circle fill="#181818" cx="221.6" cy="61.7" r="0.9"/>
		<circle fill="#181818" cx="221.6" cy="65.7" r="0.9"/>
		<circle fill="#181818" cx="221.6" cy="69.7" r="0.9"/>
		<circle fill="#181818" cx="221.6" cy="73.7" r="0.9"/>
		<circle fill="#181818" cx="221.6" cy="77.7" r="0.9"/>
		<circle fill="#181818" cx="221.6" cy="81.7" r="0.9"/>
		<circle fill="#181818" cx="221.6" cy="85.7" r="0.9"/>
		<circle fill="#181818" cx="221.6" cy="89.7" r="0.9"/>
		<circle fill="#181818" cx="221.6" cy="93.7" r="0.9"/>
		<circle fill="#181818" cx="221.6" cy="97.7" r="0.9"/>
		<circle fill="#181818" cx="221.6" cy="101.7" r="0.9"/>
		<circle fill="#181818" cx="221.6" cy="105.7" r="0.9"/>
		<circle fill="#181818" cx="221.6" cy="109.7" r="0.9"/>
		<circle fill="#181818" cx="221.6" cy="113.7" r="0.9"/>
		<circle fill="#181818" cx="221.6" cy="117.7" r="0.9"/>
		<circle fill="#181818" cx="221.6" cy="121.7" r="0.9"/>
		<circle fill="#181818" cx="226.1" cy="59.7" r="0.9"/>
		<circle fill="#181818" cx="226.1" cy="63.7" r="0.9"/>
		<circle fill="#181818" cx="226.1" cy="67.7" r="0.9"/>
		<circle fill="#181818" cx="226.1" cy="71.7" r="0.9"/>
		<circle fill="#181818" cx="226.1" cy="75.7" r="0.9"/>
		<circle fill="#181818" cx="226.1" cy="79.7" r="0.9"/>
		<circle fill="#181818" cx="226.1" cy="83.7" r="0.9"/>
		<circle fill="#181818" cx="226.1" cy="87.7" r="0.9"/>
		<circle fill="#181818" cx="226.1" cy="91.7" r="0.9"/>
		<circle fill="#181818" cx="226.1" cy="95.7" r="0.9"/>
		<circle fill="#181818" cx="226.1" cy="99.7" r="0.9"/>
		<circle fill="#181818" cx="226.1" cy="103.7" r="0.9"/>
		<circle fill="#181818" cx="226.1" cy="107.7" r="0.9"/>
		<circle fill="#181818" cx="226.1" cy="111.7" r="0.9"/>
		<circle fill="#181818" cx="226.1" cy="115.7" r="0.9"/>
		<circle fill="#181818" cx="226.1" cy="119.7" r="0.9"/>
		<circle fill="#181818" cx="230.6" cy="61.7" r="0.9"/>
		<circle fill="#181818" cx="230.6" cy="65.7" r="0.9"/>
		<circle fill="#181818" cx="230.6" cy="69.7" r="0.9"/>
		<circle fill="#181818" cx="230.6" cy="73.7" r="0.9"/>
		<circle fill="#181818" cx="230.6" cy="77.7" r="0.9"/>
		<circle fill="#181818" cx="230.6" cy="81.7" r="0.9"/>
		<circle fill="#181818" cx="230.6" cy="85.7" r="0.9"/>
		<circle fill="#181818" cx="230.6" cy="89.7" r="0.9"/>
		<circle fill="#181818" cx="230.6" cy="93.7" r="0.9"/>
		<circle fill="#181818" cx="230.6" cy="97.7" r="0.9"/>
		<circle fill="#181818" cx="230.6" cy="101.7" r="0.9"/>
		<circle fill="#181818" cx="230.6" cy="105.7" r="0.9"/>
		<circle fill="#181818" cx="230.6" cy="109.7" r="0.9"/>
		<circle fill="#181818" cx="230.6" cy="113.7" r="0.9"/>
		<circle fill="#181818" cx="230.6" cy="117.7" r="0.9"/>
		<circle fill="#181818" cx="230.6" cy="121.7" r="0.9"/>
		<circle fill="#181818" cx="235.1" cy="59.7" r="0.9"/>
		<circle fill="#181818" cx="235.1" cy="63.7" r="0.9"/>
		<circle fill="#181818" cx="235.1" cy="67.7" r="0.9"/>
		<circle fill="#181818" cx="235.1" cy="71.7" r="0.9"/>
		<circle fill="#181818" cx="235.1" cy="75.7" r="0.9"/>
		<circle fill="#181818" cx="235.1" cy="79.7" r="0.9"/>
		<circle fill="#181818" cx="235.1" cy="83.7" r="0.9"/>
		<circle fill="#181818" cx="235.1" cy="87.7" r="0.9"/>
		<circle fill="#181818" cx="235.1" cy="91.7" r="0.9"/>
		<circle fill="#181818" cx="235.1" cy="95.7" r="0.9"/>
		<circle fill="#181818" cx="235.1" cy="99.7" r="0.9"/>
		<circle fill="#181818" cx="235.1" cy="103.7" r="0.9"/>
		<circle fill="#181818" cx="235.1" cy="107.7" r="0.9"/>
		<circle fill="#181818" cx="235.1" cy="111.7" r="0.9"/>
		<circle fill="#181818" cx="235.1" cy="115.7" r="0.9"/>
		<circle fill="#181818" cx="235.1" cy="119.7" r="0.9"/>
		<circle fill="#181818" cx="239.6" cy="61.7" r="0.9"/>
		<circle fill="#181818" cx="239.6" cy="65.7" r="0.9"/>
		<circle fill="#181818" cx="239.6" cy="69.7" r="0.9"/>
		<circle fill="#181818" cx="239.6" cy="73.7" r="0.9"/>
		<circle fill="#181818" cx="239.6" cy="77.7" r="0.9"/>
		<circle fill="#181818" cx="239.6" cy="81.7" r="0.9"/>
		<circle fill="#181818" cx="239.6" cy="85.7" r="0.9"/>
		<circle fill="#181818" cx="239.6" cy="89.7" r="0.9"/>
		<circle fill="#181818" cx="239.6" cy="93.7" r="0.9"/>
		<circle fill="#181818" cx="239.6" cy="97.7" r="0.9"/>
		<circle fill="#181818" cx="239.6" cy="101.7" r="0.9"/>
		<circle fill="#181818" cx="239.6" cy="105.7" r="0.9"/>
		<circle fill="#181818" cx="239.6" cy="109.7" r="0.9"/>
		<circle fill="#181818" cx="239.6" cy="113.7" r="0.9"/>
		<circle fill="#181818" cx="239.6" cy="117.7" r="0.9"/>
		<circle fill="#181818" cx="239.6" cy="121.7" r="0.9"/>
	</g>
</g>
<g id="Layer_9">
	<rect x="194.5" y="123" fill="#181818" width="46.4" height="17.1"/>
</g>
<g id="Layer_8">
	<g>
		<polygon fill="#181818" points="223.9,27.3 223.9,27.3 223.9,27.3 		"/>
		<path fill="#181818" d="M211.2,44.4L211.2,44.4L211.2,44.4C211.3,44.5,211.3,44.5,211.2,44.4z"/>
		<path fill="#181818" d="M226.5,29.6c1.5,1.8,2.4,4.2,2.4,6.7c0,5.9-4.8,10.7-10.7,10.7c-2.5,0-4.8-0.9-6.6-2.3L240.9,68V42.5
			L226.5,29.6z"/>
	</g>
	<circle fill="#AAC138" cx="218.2" cy="36.3" r="10.7"/>
</g>
<g id="Layer_4">
	<path fill="#E4D6D8" d="M167.2,140.1H33.6c-2.8,0-5-2.3-5-5V31.3c0-2.8,2.3-5,5-5h133.5c2.8,0,5,2.3,5,5v103.8
		C172.2,137.8,169.9,140.1,167.2,140.1z"/>
</g>
<g id="Layer_7">
	<path fill="#CFBEBF" d="M167.2,26.3h-12.9L153,28L32.5,139.9c0.4,0.1,0.7,0.1,1.1,0.1h133.5c2.8,0,5-2.3,5-5V31.3
		C172.2,28.6,169.9,26.3,167.2,26.3z"/>
</g>
<g id="text">
	<g>
		<path fill="#2B2928" d="M48.5,75.9c0-1.7,0.9-2.6,2.6-2.6h44.4c1.8,0,2.6,0.9,2.6,2.6v9.7c0,1.7-0.9,2.6-2.6,2.6H83.4
			c-1.8,0-2.6,0.9-2.6,2.6v40.6c0,1.7-0.9,2.6-2.6,2.6h-9.7c-1.8,0-2.6-0.9-2.6-2.6V90.8c0-1.7-0.9-2.6-2.6-2.6H51.1
			c-1.8,0-2.6-0.9-2.6-2.6V75.9z"/>
		<path fill="#2B2928" d="M101.8,75.2c0-1.3,0.8-1.9,2.4-1.9h10.3c1.6,0,2.5,0.8,2.8,2.3l7.7,33.3c0.1,0.2,0.2,0.4,0.3,0.5
			c0.1,0.1,0.3,0.1,0.4,0c0.1-0.1,0.2-0.3,0.3-0.5l7.6-33.3c0.4-1.5,1.3-2.3,2.9-2.3h10.3c1.6,0,2.4,0.7,2.4,1.9c0,0.3,0,0.6-0.1,1
			l-12.7,55.5c-0.4,1.5-1.3,2.2-2.9,2.2h-16.1c-1.6,0-2.5-0.7-2.8-2.2l-12.7-55.5C101.8,75.8,101.8,75.5,101.8,75.2z"/>
	</g>
	<g>
		<path fill="#2B2928" d="M49.2,61.5v-10c0-0.7,0-1.4,0.1-2.1c0.1-0.7,0.3-1.5,0.7-2.5c0.4-1,0.9-1.9,1.5-2.6
			c0.7-0.7,1.6-1.3,2.9-1.8c1.3-0.5,2.8-0.8,4.6-0.8c1.6,0,3,0.2,4.2,0.6c1.2,0.4,2.1,0.9,2.8,1.5c0.7,0.6,1.2,1.3,1.7,2.1
			c0.4,0.8,0.7,1.6,0.9,2.3c0.2,0.9,0.3,1.6,0.3,2.2c0,0.7-0.3,1.1-1,1.2l-4.4,1c-0.1,0-0.2,0-0.3,0c-0.6,0-0.9-0.4-0.9-1.1
			c-0.1-1-0.3-1.8-0.8-2.3c-0.4-0.5-1.2-0.7-2.3-0.7c-1.3,0-2.2,0.4-2.5,1.1c-0.4,0.8-0.6,2-0.6,3.8v5.8c0,1.8,0.2,3.1,0.6,3.8
			c0.4,0.8,1.2,1.1,2.5,1.1c0.7,0,1.3-0.1,1.7-0.3c0.4-0.2,0.7-0.5,0.9-0.9c0.2-0.4,0.3-0.8,0.4-1.2c0.1-0.4,0.1-0.8,0.1-1.4h-2.3
			c-0.8,0-1.2-0.4-1.2-1.2v-3.2c0-0.8,0.4-1.2,1.2-1.2h7.8c0.8,0,1.2,0.4,1.2,1.2v5.4c0,0.7,0,1.4-0.1,2.1c-0.1,0.7-0.3,1.5-0.7,2.5
			s-0.9,1.8-1.6,2.6c-0.7,0.7-1.6,1.3-2.9,1.8s-2.8,0.8-4.6,0.8s-3.3-0.3-4.6-0.8s-2.3-1.1-2.9-1.8c-0.7-0.7-1.2-1.6-1.5-2.6
			s-0.6-1.8-0.7-2.5C49.3,62.9,49.2,62.2,49.2,61.5z"/>
		<path fill="#2B2928" d="M72.7,61.5V43.7c0-0.8,0.4-1.2,1.2-1.2h4.4c0.8,0,1.2,0.4,1.2,1.2v15.7c0,1.8,0.2,3.1,0.6,3.8
			s1.2,1.1,2.6,1.1s2.2-0.4,2.5-1.1s0.5-2,0.5-3.8V43.7c0-0.8,0.4-1.2,1.2-1.2h4.4c0.8,0,1.2,0.4,1.2,1.2v17.8c0,0.7,0,1.4-0.1,2.1
			c-0.1,0.7-0.3,1.5-0.7,2.5c-0.4,1-0.9,1.8-1.6,2.6c-0.7,0.7-1.6,1.3-2.9,1.8s-2.8,0.8-4.6,0.8c-1.7,0-3.3-0.3-4.6-0.8
			c-1.3-0.5-2.3-1.1-2.9-1.8c-0.7-0.7-1.2-1.6-1.6-2.6s-0.6-1.8-0.7-2.5C72.7,62.9,72.7,62.2,72.7,61.5z"/>
		<path fill="#2B2928" d="M96.6,43.7c0-0.8,0.4-1.2,1.2-1.2h4.3c0.8,0,1.2,0.4,1.2,1.2v25.6c0,0.8-0.4,1.2-1.2,1.2h-4.3
			c-0.8,0-1.2-0.4-1.2-1.2V43.7z"/>
		<path fill="#2B2928" d="M107.8,69.3V43.8c0-0.8,0.4-1.2,1.2-1.3h8.7c3.6,0,6.1,0.8,7.6,2.3s2.2,4,2.2,7.3v8.8
			c0,3.4-0.7,5.8-2.2,7.3c-1.5,1.5-4,2.3-7.6,2.3H109C108.2,70.5,107.8,70.1,107.8,69.3z M114.5,62.4c0,0.8,0.4,1.2,1.2,1.2h2.1
			c1,0,1.8-0.2,2.2-0.5s0.6-1.1,0.6-2.2v-8.8c0-1.1-0.2-1.9-0.6-2.2c-0.4-0.3-1.1-0.5-2.2-0.5h-2.1c-0.8,0-1.2,0.4-1.2,1.2V62.4z"/>
		<path fill="#2B2928" d="M131.6,43.7c0-0.8,0.4-1.2,1.2-1.2h16.5c0.8,0,1.2,0.4,1.2,1.2v4.5c0,0.8-0.4,1.2-1.2,1.2h-9.5
			c-0.8,0-1.2,0.4-1.2,1.2v1.3c0,0.8,0.4,1.2,1.2,1.2h6.1c0.8,0,1.2,0.4,1.2,1.2v4.5c0,0.8-0.4,1.2-1.2,1.2h-6.1
			c-0.8,0-1.2,0.4-1.2,1.2v1.3c0,0.8,0.4,1.2,1.2,1.2h9.5c0.8,0,1.2,0.4,1.2,1.2v4.5c0,0.8-0.4,1.2-1.2,1.2h-16.5
			c-0.8,0-1.2-0.4-1.2-1.2V43.7z"/>
	</g>
</g>
</svg>
